<svg id="logo" role="img" aria-labelledby="pfsense-logo" x="0px" y="0px" viewBox="0 0 282.8 84.2">
	<title id="pfsense-logo-svg">cloakSense Logo</title>
	<path class="logo-st0" d="m 47.928619,77.986679 q -4.724627,1.873559 -8.743276,1.873559 -7.005482,0 -12.544701,-4.480251 -7.059788,-5.729289 -7.059788,-14.934167 0,-9.232031 7.059788,-14.961321 5.539219,-4.48025 12.62616,-4.48025 3.855731,0 8.661817,1.873559 v 11.540039 q -1.357651,-1.656335 -2.769609,-2.498079 -2.579538,-1.547723 -5.539219,-1.547723 -3.747118,0 -6.516727,2.253702 -3.502741,2.851068 -3.502741,7.820073 0,4.941852 3.502741,7.79292 2.769609,2.253702 6.516727,2.253702 2.959681,0 5.539219,-1.547723 1.384805,-0.814591 2.769609,-2.498079 z"/>
	<path class="logo-st2" d="m 70.419576,38.245093 c 0.0978,-0.0256 0.281926,-0.02653 0.409167,-0.0021 0.127242,0.02447 0.04722,0.04542 -0.177818,0.04655 -0.225041,0.0011 -0.329149,-0.01888 -0.231349,-0.04449 z M 46.832804,38.026018 c -0.09311,-0.102886 -0.169292,-0.305521 -0.169292,-0.450302 0,-0.144781 0.571173,-1.953713 1.269274,-4.01985 l 1.269273,-3.756612 -0.469268,-0.575224 c -1.630338,-1.998453 -2.830457,-4.556624 -3.413089,-7.275333 -0.19495,-0.909686 -0.230907,-1.394993 -0.234948,-3.171044 -0.0041,-1.790756 0.02937,-2.266189 0.228995,-3.255691 1.235593,-6.124466 5.469098,-10.943738 11.282273,-12.843338 3.458964,-1.130304 7.205731,-1.092285 10.669883,0.108268 4.514825,1.564679 8.364727,5.225836 10.127021,9.630536 0.8472,2.117498 1.195475,3.939053 1.193857,6.24411 -0.0016,2.285773 -0.322697,4.096266 -1.069358,6.029617 -0.628966,1.628602 -1.707,3.485434 -2.624356,4.520255 -2.952935,3.331055 -5.870836,5.105173 -9.776685,5.944342 -1.430703,0.307386 -4.177425,0.380238 -5.732147,0.152035 -1.147655,-0.168453 -2.633935,-0.55456 -3.771231,-0.979695 l -0.614785,-0.229813 -3.748986,2.057402 c -2.061942,1.131571 -3.86107,2.057402 -3.998063,2.057402 -0.136992,0 -0.325258,-0.08418 -0.418368,-0.187065 z m 4.89415,-3.728364 c 1.29399,-0.701793 2.621924,-1.438345 2.950963,-1.636783 l 0.598254,-0.360795 0.720035,0.296919 c 0.396019,0.163304 0.73716,0.296918 0.758092,0.296918 0.02093,0 -0.302769,-0.395674 -0.719334,-0.879275 -0.884931,-1.02734 -1.926664,-2.735756 -2.42337,-3.974267 l -0.350264,-0.873364 -1.975473,-7.16e-4 -1.975471,-7.17e-4 0.318598,0.443641 c 0.175229,0.244001 0.515865,0.667819 0.75697,0.941815 l 0.438372,0.498176 -0.338731,1.129593 c -0.186302,0.621275 -0.697116,2.195261 -1.135143,3.497748 l -0.796414,2.368156 0.410103,-0.235531 c 0.225556,-0.129542 1.468822,-0.809725 2.762813,-1.511519 z m 9.223283,-7.098003 c -0.02042,-0.02042 -1.422018,-0.02493 -3.11467,-0.01002 l -3.07755,0.0271 0.530303,1.075392 c 0.750244,1.521406 1.399981,2.43556 2.423085,3.409174 0.922165,0.87756 1.972768,1.504841 2.812832,1.67945 l 0.408973,0.08501 0.02707,-3.114486 c 0.01489,-1.712967 0.01037,-3.13119 -0.01005,-3.151606 z m 2.768944,5.981909 c 1.612389,-0.598973 3.328668,-2.332411 4.470377,-4.515069 0.32212,-0.615812 0.482375,-0.830552 0.561085,-0.751842 0.0606,0.0606 0.110434,0.15851 0.110748,0.217583 3.07e-4,0.05907 0.04994,0.285195 0.110272,0.502492 l 0.109703,0.395086 0.287673,-0.275609 c 0.660611,-0.632906 0.365793,0.257484 -0.561854,1.696872 -0.239989,0.372381 -0.789829,1.074359 -1.221865,1.559949 -0.432038,0.48559 -0.762733,0.882891 -0.734881,0.882891 0.199278,0 1.905684,-0.812091 2.667575,-1.269519 1.64074,-0.985076 3.477807,-2.633673 4.438176,-3.982849 l 0.338804,-0.475969 h -1.489586 c -0.828335,0 -1.489586,-0.04139 -1.489586,-0.09323 0,-0.05128 0.30586,-0.373495 0.67969,-0.716042 l 0.67969,-0.622813 h 1.255868 1.255868 l 0.35508,-0.748073 c 0.671115,-1.413884 1.141742,-3.197242 1.334537,-5.056983 l 0.05567,-0.537032 H 74.39534 71.858456 l -0.06624,1.150782 c -0.06085,1.05699 -0.344987,3.050122 -0.569596,3.995482 -0.08549,0.359822 -0.07319,0.397073 0.160403,0.485886 0.139147,0.0529 0.310246,0.09619 0.380221,0.09619 0.06997,0 0.21,0.06052 0.311165,0.134498 0.173948,0.127195 0.170843,0.143233 -0.05717,0.295308 -0.132608,0.08845 -0.770465,0.625466 -1.41746,1.193382 -0.646996,0.567915 -1.20079,1.033434 -1.230654,1.034485 -0.06353,0.0022 -0.935145,-3.594724 -0.88357,-3.646298 0.01915,-0.01915 0.297662,0.05561 0.618914,0.166135 0.432434,0.148779 0.595008,0.168768 0.626137,0.07698 0.188827,-0.556771 0.497415,-2.638984 0.613395,-4.138924 l 0.06525,-0.843907 -3.970835,-5.4e-5 -3.970835,-5.4e-5 0.02842,3.169485 0.02842,3.169485 2.824499,0.02719 2.824499,0.02719 0.126337,0.428024 c 0.06949,0.235414 0.15598,0.546125 0.192208,0.69047 l 0.06587,0.262445 h -3.019547 -3.019555 v 3.179172 3.179171 l 0.332448,-0.0717 c 0.182847,-0.03944 0.573447,-0.161232 0.868001,-0.270654 z M 52.482076,24.630525 c -0.253095,-1.007196 -0.510688,-2.778605 -0.66145,-4.548652 l -0.05881,-0.69047 H 49.229894 46.69797 l 0.127843,1.052585 c 0.195462,1.609327 0.519957,2.793821 1.189856,4.343305 l 0.409077,0.946198 h 2.167246 2.167246 z m 8.50228,-2.068078 v -3.171044 h -3.885782 -3.885781 l 0.0574,0.792761 c 0.13363,1.845478 0.430561,3.672349 0.814673,5.012296 l 0.153947,0.537031 h 3.37277 3.37277 z m -9.164687,-5.037868 c 0.02976,-0.239107 0.08252,-0.849021 0.117241,-1.355366 0.03472,-0.506344 0.174309,-1.52913 0.310185,-2.272859 0.135876,-0.743729 0.247047,-1.393692 0.247047,-1.444363 0,-0.05067 -0.208327,-0.150458 -0.462948,-0.221747 -0.254622,-0.07129 -0.493102,-0.178406 -0.529955,-0.238037 -0.03685,-0.05963 0.528216,-0.672179 1.25571,-1.36122 1.011702,-0.958228 1.350258,-1.224073 1.439855,-1.130623 0.137978,0.143911 0.880075,3.527318 0.801536,3.654399 -0.02952,0.04776 -0.202261,0.02607 -0.383879,-0.0482 -0.595074,-0.243338 -0.756124,-0.271967 -0.761937,-0.135448 -0.003,0.07114 -0.09891,0.635691 -0.21308,1.254556 -0.114165,0.618865 -0.236198,1.516475 -0.271186,1.994689 -0.03499,0.478214 -0.08769,1.065113 -0.11711,1.30422 l -0.0535,0.43474 h 3.893355 3.893353 v -3.118228 -3.118226 l -2.725059,-0.02725 -2.725058,-0.02724 -0.126336,-0.428025 c -0.06948,-0.235413 -0.155976,-0.546124 -0.192205,-0.690469 l -0.06587,-0.262445 h 2.917263 2.917263 V 7.065248 c 0,-1.772205 -0.01466,-3.22219 -0.03258,-3.22219 -0.01792,0 -0.282598,0.07348 -0.588177,0.163293 C 59.495022,4.26163 58.536712,4.810609 57.801768,5.473923 57.080547,6.12485 55.922085,7.74732 55.406693,8.828312 55.23943,9.179133 55.059553,9.452486 55.006967,9.435765 54.954377,9.419045 54.843554,9.155024 54.760688,8.849055 54.677818,8.543086 54.59408,8.273388 54.574595,8.249724 c -0.01949,-0.02367 -0.150143,0.06474 -0.29035,0.196462 -1.039622,0.976673 0.757272,-2.087691 2.008541,-3.425301 0.342845,-0.366503 0.595803,-0.666368 0.562127,-0.666368 -0.144766,0 -1.921415,0.809474 -2.557998,1.165472 -1.029351,0.575645 -2.575369,1.779987 -3.388297,2.639471 -0.877138,0.92737 -1.118657,1.216324 -1.205235,1.441944 -0.03685,0.09602 -0.109099,0.174575 -0.160563,0.174575 -0.05147,0 -0.117646,0.09206 -0.147072,0.204583 -0.05145,0.196744 -0.0031,0.204584 1.26068,0.204584 0.722798,0 1.335574,0.03462 1.361723,0.07693 0.02615,0.04231 -0.289915,0.36453 -0.702365,0.716042 l -0.749909,0.639115 h -1.1158 c -0.820158,0 -1.117933,0.03388 -1.123843,0.127865 -0.0044,0.07032 -0.19708,0.556391 -0.428128,1.080146 -0.519328,1.177246 -0.889697,2.576779 -1.065721,4.027079 l -0.134356,1.106998 h 2.533766 2.533767 z M 70.350253,17.01312 c -0.105602,-1.400798 -0.348472,-2.944135 -0.655002,-4.162249 l -0.271826,-1.080202 -3.452347,-0.02693 -3.452346,-0.02693 v 3.121258 3.121259 h 3.951426 3.951426 z m 6.489323,0.503912 c 0,-1.198514 -0.593898,-3.534843 -1.282883,-5.046721 l -0.342145,-0.750788 h -2.164891 c -1.985865,0 -2.159434,0.01422 -2.09891,0.171941 0.19846,0.517179 0.681957,3.335206 0.789604,4.602148 l 0.124534,1.465707 h 2.487345 2.487346 z M 68.86082,10.238148 c 0,-0.191908 -0.909223,-1.95119 -1.388243,-2.686151 C 66.182873,5.573202 64.581394,4.323285 62.800034,3.905185 l -0.281302,-0.06602 v 3.224139 3.224138 h 3.171044 c 1.744074,0 3.171044,-0.02218 3.171044,-0.04929 z m 5.421462,-0.02037 c 0,-0.03831 -0.255811,-0.403643 -0.56847,-0.811846 C 72.512276,7.83722 70.436514,6.120528 68.658605,5.225188 68.132632,4.960312 66.743932,4.354516 66.662717,4.354516 c -0.0081,0 0.201466,0.224274 0.465677,0.498387 1.118877,1.160815 2.298591,2.999182 2.973262,4.633278 l 0.330814,0.801255 h 1.924907 c 1.058698,0 1.924905,-0.03135 1.924905,-0.06966 z"/>
	<path class="logo-st1" d="M 88.685319,78.855576 H 76.194924 L 63.677377,62.780981 V 78.855576 H 54.03805 V 41.791687 h 9.639327 V 57.078844 L 75.434639,41.791687 H 87.327667 L 72.610724,59.332546 Z"/>
	<path class="logo-st0" d="m 115.1,58.6 c -1.5,-0.8 -3,-1.4 -4.7,-1.8 -1.7,-0.4 -3.2,-0.7 -4.7,-1.1 -1.5,-0.3 -2.7,-0.7 -3.6,-1.1 -0.9,-0.4 -1.4,-1.1 -1.4,-2 0,-1.1 0.5,-1.9 1.4,-2.4 0.9,-0.5 1.9,-0.7 2.8,-0.7 2.8,0 5,1 6.7,3.1 l 7,-7 c -1.7,-1.8 -3.9,-3.1 -6.4,-3.8 -2.5,-0.7 -5,-1.1 -7.4,-1.1 -1.9,0 -3.9,0.2 -5.7,0.7 -1.9,0.5 -3.6,1.2 -5,2.3 -1.5,1 -2.6,2.3 -3.5,3.9 -0.9,1.6 -1.3,3.5 -1.3,5.7 0,2.3 0.5,4.2 1.4,5.6 0.9,1.4 2.1,2.5 3.6,3.3 1.5,0.8 3,1.3 4.7,1.7 1.7,0.4 3.2,0.7 4.7,1.1 1.5,0.3 2.7,0.7 3.6,1.2 0.9,0.5 1.4,1.2 1.4,2.2 0,1 -0.5,1.7 -1.6,2.1 -1.1,0.4 -2.3,0.6 -3.6,0.6 -1.7,0 -3.3,-0.3 -4.6,-1 -1.3,-0.7 -2.5,-1.7 -3.6,-3 l -7,7.7 c 1.8,1.9 4.1,3.2 6.7,3.9 2.7,0.7 5.3,1.1 7.9,1.1 2,0 4,-0.2 6.1,-0.6 2,-0.4 3.9,-1 5.5,-2 1.6,-0.9 3,-2.2 4,-3.8 1,-1.6 1.6,-3.5 1.6,-5.9 0,-2.3 -0.5,-4.2 -1.4,-5.6 -1,-1.3 -2.2,-2.5 -3.6,-3.3"/>


	<path class="logo-st0" d="m 156.3,46.1 c -1.5,-1.7 -3.3,-3 -5.5,-3.9 -2.2,-0.9 -4.6,-1.4 -7.2,-1.4 -2.9,0 -5.6,0.5 -8.1,1.4 -2.5,0.9 -4.7,2.2 -6.6,3.9 -1.9,1.7 -3.3,3.8 -4.4,6.2 -1.1,2.4 -1.6,5.1 -1.6,8 0,3 0.5,5.6 1.6,8 1.1,2.4 2.5,4.5 4.4,6.2 1.9,1.7 4.1,3 6.6,3.9 2.5,0.9 5.2,1.4 8.1,1.4 3,0 5.9,-0.6 8.7,-1.9 2.8,-1.3 5.1,-3.1 7,-5.4 l -8,-5.9 c -1,1.3 -2.1,2.4 -3.4,3.3 -1.3,0.8 -2.9,1.3 -4.8,1.3 -2.2,0 -4.1,-0.7 -5.7,-2 -1.5,-1.3 -2.5,-3.1 -3,-5.2 H 161 v -3.6 c 0,-3 -0.4,-5.6 -1.2,-8 -0.8,-2.5 -2,-4.6 -3.5,-6.3 m -22,10 c 0.1,-0.9 0.3,-1.8 0.7,-2.6 0.4,-0.8 0.9,-1.6 1.6,-2.2 0.7,-0.6 1.5,-1.2 2.5,-1.6 1,-0.4 2.1,-0.6 3.4,-0.6 2.1,0 3.8,0.7 5.1,2.1 1.3,1.4 2,3 1.9,5 h -15.2 z"/>


	<path class="logo-st0" d="m 198.3,45.8 c -1,-1.6 -2.4,-2.8 -4.2,-3.7 -1.8,-0.9 -4.1,-1.3 -7,-1.3 -1.4,0 -2.7,0.2 -3.8,0.5 -1.2,0.4 -2.2,0.8 -3.1,1.4 -0.9,0.6 -1.7,1.2 -2.4,1.9 -0.7,0.7 -1.2,1.4 -1.5,2.1 H 176 v -5.1 h -11 v 37.2 h 11.5 V 60.4 c 0,-1.2 0.1,-2.4 0.2,-3.5 0.2,-1.1 0.5,-2.1 1,-3 0.5,-0.9 1.2,-1.6 2.1,-2.1 0.9,-0.5 2.1,-0.8 3.6,-0.8 1.5,0 2.6,0.3 3.4,0.9 0.8,0.6 1.4,1.4 1.8,2.4 0.4,1 0.6,2 0.7,3.2 0.1,1.1 0.1,2.3 0.1,3.3 V 79 h 11.5 V 58.4 c 0,-2.5 -0.2,-4.8 -0.5,-7 -0.5,-2.1 -1.1,-4 -2.1,-5.6"/>


	<path class="logo-st0" d="m 231.5,58.6 c -1.5,-0.8 -3,-1.4 -4.7,-1.8 -1.7,-0.4 -3.2,-0.7 -4.7,-1.1 -1.5,-0.3 -2.7,-0.7 -3.6,-1.1 -0.9,-0.4 -1.4,-1.1 -1.4,-2 0,-1.1 0.5,-1.9 1.4,-2.4 0.9,-0.5 1.9,-0.7 2.8,-0.7 2.8,0 5,1 6.7,3.1 l 7,-7 c -1.7,-1.8 -3.9,-3.1 -6.4,-3.8 -2.5,-0.7 -5,-1.1 -7.4,-1.1 -1.9,0 -3.9,0.2 -5.7,0.7 -1.9,0.5 -3.6,1.2 -5,2.3 -1.5,1 -2.6,2.3 -3.5,3.9 -0.9,1.6 -1.3,3.5 -1.3,5.7 0,2.3 0.5,4.2 1.4,5.6 0.9,1.4 2.1,2.5 3.6,3.3 1.5,0.8 3,1.3 4.7,1.7 1.7,0.4 3.2,0.7 4.7,1.1 1.5,0.3 2.7,0.7 3.6,1.2 0.9,0.5 1.4,1.2 1.4,2.2 0,1 -0.5,1.7 -1.6,2.1 -1.1,0.4 -2.3,0.6 -3.6,0.6 -1.7,0 -3.3,-0.3 -4.6,-1 -1.3,-0.7 -2.5,-1.7 -3.6,-3 l -7,7.7 c 1.8,1.9 4.1,3.2 6.7,3.9 2.7,0.7 5.3,1.1 7.9,1.1 2,0 4,-0.2 6.1,-0.6 2,-0.4 3.9,-1 5.5,-2 1.6,-0.9 3,-2.2 4,-3.8 1,-1.6 1.6,-3.5 1.6,-5.9 0,-2.3 -0.5,-4.2 -1.4,-5.6 -1,-1.3 -2.2,-2.5 -3.6,-3.3"/>


	<path class="logo-st0" d="m 277.4,63.9 v -4.2 c -0.1,-2.7 -0.5,-5.2 -1.2,-7.4 -0.8,-2.4 -2,-4.5 -3.5,-6.2 -1.5,-1.7 -3.3,-3 -5.5,-3.9 -2.2,-0.9 -4.6,-1.4 -7.2,-1.4 -2.9,0 -5.6,0.5 -8.1,1.4 -2.5,0.9 -4.7,2.2 -6.6,3.9 -1.9,1.7 -3.3,3.8 -4.4,6.2 -1.1,2.4 -1.6,5.1 -1.6,8 0,3 0.5,5.6 1.6,8 1.1,2.4 2.5,4.5 4.4,6.2 1.9,1.7 4.1,3 6.6,3.9 2.5,0.9 5.2,1.4 8.1,1.4 3,0 5.9,-0.6 8.7,-1.9 2.8,-1.3 5.1,-3.1 7,-5.4 l -8,-5.9 c -1,1.3 -2.1,2.4 -3.4,3.3 -1.3,0.8 -2.9,1.3 -4.8,1.3 -2.2,0 -4.1,-0.7 -5.7,-2 -1.5,-1.3 -2.5,-3.1 -3,-5.2 h 26.6 z m -26.7,-7.8 c 0.1,-0.9 0.3,-1.8 0.7,-2.6 0.4,-0.8 0.9,-1.6 1.6,-2.2 0.7,-0.6 1.5,-1.2 2.5,-1.6 1,-0.4 2.1,-0.6 3.4,-0.6 2.1,0 3.8,0.7 5.1,2.1 1.3,1.4 2,3 1.9,5 h -15.2 z"/>


	<path class="logo-st0" d="M277.6"/>
</svg>
