<?xml version="1.0" standalone="no"?>
<!DOCTYPE svg PUBLIC "-//W3C//DTD SVG 20010904//EN"
 "http://www.w3.org/TR/2001/REC-SVG-20010904/DTD/svg10.dtd">
<svg version="1.0" xmlns="http://www.w3.org/2000/svg"
 width="712.000000pt" height="712.000000pt" viewBox="0 0 712.000000 712.000000"
 preserveAspectRatio="xMidYMid meet">
<metadata>
Created by potrace 1.11, written by Peter Selinger 2001-2013
</metadata>
  <path
     style="fill:#000000;stroke-width:1.81628978"
     d="m 499.88036,671.08425 c 1.73653,-0.4546 5.00586,-0.47109 7.26516,-0.0367 2.2593,0.43444 0.8385,0.8064 -3.15733,0.82656 -3.99584,0.0202 -5.84437,-0.3353 -4.10783,-0.7899 z M 81.07417,667.19438 c -1.653278,-1.82684 -3.005941,-5.42484 -3.005941,-7.99556 0,-2.57073 10.141726,-34.69009 22.537191,-71.37636 l 22.53718,-66.70232 -8.3323,-10.21367 C 85.862055,475.42198 64.552761,429.99915 54.207561,381.72582 50.746039,365.57347 50.107583,356.95637 50.03583,325.42084 49.963484,293.62421 50.55725,285.18244 54.101862,267.61287 76.041013,158.86699 151.21104,73.296109 254.42964,39.566843 c 61.4173,-20.069641 127.94479,-19.394577 189.45419,1.922416 80.16513,27.782402 148.52391,92.789821 179.81516,170.999561 15.04286,37.59826 21.22684,69.94175 21.1981,110.87029 -0.0285,40.58612 -5.72979,72.7332 -18.98749,107.06173 -11.16791,28.91742 -30.30946,61.8873 -46.598,80.26156 -52.43226,59.14613 -104.24243,90.64733 -173.59461,105.54759 -25.40352,5.45794 -74.17426,6.7515 -101.77987,2.69954 -20.37773,-2.99105 -46.76808,-9.84676 -66.9619,-17.39544 l -10.9161,-4.08057 -66.56691,36.5312 c -36.61179,20.09214 -68.557075,36.53118 -70.989505,36.53118 -2.43243,0 -5.775275,-1.49468 -7.428535,-3.32152 z m 86.9004,-66.20075 c 22.97607,-12.46102 46.55484,-25.53923 52.39724,-29.06269 l 10.62259,-6.40627 12.78492,5.27209 c 7.03171,2.89963 13.089,5.27207 13.46067,5.27207 0.37165,0 -5.37597,-7.02557 -12.77248,-15.61239 -15.71281,-18.24142 -34.2098,-48.57602 -43.0293,-70.56698 l -6.21929,-15.50745 -35.07644,-0.0127 -35.07643,-0.0127 5.65702,7.87727 c 3.11136,4.33249 9.15969,11.85778 13.44074,16.72285 l 7.78373,8.84561 -6.0145,20.05701 c -3.30797,11.03135 -12.37798,38.97902 -20.15558,62.10594 l -14.14111,42.04893 7.28178,-4.18208 c 4.00497,-2.30015 26.08038,-14.37746 49.05644,-26.8385 z M 331.74298,474.96164 c -0.36252,-0.36253 -25.24932,-0.44263 -55.30401,-0.17799 l -54.6449,0.48111 9.41605,19.09464 c 13.32131,27.01404 24.85803,43.24573 43.02424,60.53322 16.37394,15.58193 35.02842,26.71991 49.94457,29.82026 l 7.26173,1.50937 0.48071,-55.30074 c 0.2644,-30.4154 0.18412,-55.59733 -0.17836,-55.95985 z m 49.16531,106.21465 c 28.62954,-10.63536 59.10376,-41.41424 79.37591,-80.16947 5.71956,-10.93434 8.56505,-14.74725 9.96261,-13.34969 1.07597,1.07597 1.96086,2.8145 1.96644,3.86341 0.005,1.04891 0.88666,5.06391 1.958,8.92223 l 1.94788,7.01513 5.10791,-4.8937 c 11.7298,-11.23786 6.49502,4.57187 -9.97626,30.12961 -4.26125,6.61201 -14.02419,19.0763 -21.69542,27.69842 -7.67124,8.62213 -13.54307,15.6766 -13.04853,15.6766 3.53838,0 33.83729,-14.41947 47.3654,-22.54155 29.13295,-17.49098 61.75188,-46.76344 78.80417,-70.71937 l 6.01579,-8.45131 h -26.44905 c -14.7079,0 -26.44907,-0.73485 -26.44907,-1.65538 0,-0.91045 5.43085,-6.63177 12.06856,-12.71403 l 12.06857,-11.05865 h 22.29915 22.29917 l 6.3048,-13.28276 c 11.9163,-25.1049 20.27274,-56.77015 23.69601,-89.79168 l 0.98853,-9.53552 H 570.474 525.42914 l -1.17624,20.43326 c -1.08039,18.76788 -6.12559,54.15789 -10.11374,70.94368 -1.51797,6.389 -1.29963,7.05042 2.84812,8.62737 2.47068,0.93935 5.50872,1.70792 6.75119,1.70792 1.24247,0 3.72875,1.07466 5.52504,2.38814 3.08862,2.25847 3.03348,2.54325 -1.01507,5.24349 -2.35458,1.57042 -13.68037,11.10576 -25.1684,21.18965 -11.48803,10.0839 -21.32119,18.34963 -21.85145,18.3683 -1.12805,0.0398 -16.60442,-63.82783 -15.68866,-64.74359 0.34006,-0.34006 5.28529,0.98739 10.98942,2.94989 7.6783,2.64172 10.56496,2.99664 11.11768,1.36692 3.35281,-9.88603 8.83209,-46.85775 10.89143,-73.49064 l 1.15865,-14.98439 -70.50606,-9.7e-4 -70.50605,-9.6e-4 0.50466,56.2773 0.50466,56.27731 50.15173,0.48271 50.15174,0.48272 2.24325,7.59999 c 1.2338,4.17999 2.76957,9.69697 3.41284,12.25996 l 1.16957,4.65996 H 413.2083 359.59315 v 56.44931 56.44929 l 5.90294,-1.27319 c 3.24662,-0.70027 10.1821,-2.86283 15.4122,-4.80572 z M 181.38252,429.34431 c -4.49396,-17.88375 -9.06778,-49.33686 -11.7447,-80.76578 l -1.04424,-12.25995 H 123.63683 78.680064 l 2.269963,18.68967 c 3.470621,28.57516 9.232346,49.60702 21.127063,77.11961 l 7.26356,16.80068 h 38.48157 38.48157 z M 332.3488,392.62356 v -56.30498 h -68.99585 -68.99584 l 1.01925,14.07624 c 2.37273,32.76827 7.64501,65.20615 14.46531,88.9982 l 2.73348,9.53552 h 59.88682 59.88683 z M 169.62082,303.17129 c 0.52838,-4.24558 1.46517,-15.07521 2.08174,-24.06584 0.61658,-8.99064 3.09502,-27.15121 5.50763,-40.35684 2.41261,-13.20564 4.38656,-24.74636 4.38656,-25.64608 0,-0.89972 -3.69904,-2.67153 -8.22009,-3.93733 -4.52106,-1.26583 -8.7555,-3.16778 -9.40987,-4.22658 -0.65436,-1.05879 9.37899,-11.93521 22.29635,-24.16979 17.96376,-17.01428 23.97515,-21.73461 25.56604,-20.07532 2.44994,2.55528 15.6266,62.63097 14.23205,64.88742 -0.52407,0.84795 -3.59133,0.46283 -6.81614,-0.85585 -10.56612,-4.3207 -13.42572,-4.82904 -13.52894,-2.40501 -0.0538,1.26318 -1.75633,11.28732 -3.78344,22.27587 -2.02711,10.98855 -4.19392,26.9265 -4.81517,35.41765 -0.62122,8.49116 -1.55696,18.91212 -2.07941,23.1577 l -0.94994,7.71923 h 69.13031 69.1303 v -55.36718 -55.36716 l -48.38609,-0.48375 -48.38607,-0.48373 -2.2432,-7.6 c -1.23377,-4.17999 -2.76952,-9.69697 -3.41279,-12.25995 l -1.16957,-4.65997 h 51.79886 51.79886 v -57.21312 c 0,-31.467225 -0.26031,-57.213133 -0.57849,-57.213133 -0.31816,0 -5.01781,1.304744 -10.44366,2.899432 -15.42239,4.53273 -32.43812,14.280379 -45.48778,26.05817 -12.80597,11.557851 -33.3756,40.366381 -42.52688,59.560461 -2.96993,6.22917 -6.16382,11.08282 -7.09754,10.78591 -0.93374,-0.29691 -2.90156,-4.98482 -4.37292,-10.4176 -1.47137,-5.43278 -2.9583,-10.22154 -3.30426,-10.64172 -0.34599,-0.42018 -2.66594,1.14961 -5.15545,3.48839 -18.4595,17.34179 13.4461,-37.06899 35.66361,-60.819572 6.08755,-6.507612 10.57905,-11.832022 9.98111,-11.832022 -2.57046,0 -34.1166,14.373013 -45.41976,20.694096 -18.27712,10.221148 -45.72818,31.605428 -60.16252,46.866398 -15.57444,16.46636 -19.86284,21.59701 -21.40013,25.60311 -0.65423,1.70486 -1.93715,3.09976 -2.85094,3.09976 -0.91381,0 -2.08893,1.63466 -2.61141,3.63258 -0.91354,3.49337 -0.0558,3.63257 22.38459,3.63257 12.834,0 23.71443,0.61467 24.17873,1.36593 0.46431,0.75127 -5.14771,6.47258 -12.47118,12.71403 l -13.31536,11.3481 h -19.81213 c -14.5627,0 -19.84997,0.60156 -19.95492,2.27036 -0.0785,1.2487 -3.49935,9.87928 -7.601826,19.17906 -9.221176,20.90315 -15.797453,45.75323 -18.922924,71.50472 l -2.385624,19.65583 h 44.989494 44.9895 z m 329.02864,-9.08145 c -1.87507,-24.87255 -6.18747,-52.276 -11.63021,-73.9048 l -4.82654,-19.18005 -61.29978,-0.47823 -61.29978,-0.47823 v 55.42099 55.421 h 70.16142 70.16144 z m 115.22426,8.94744 c 0,-21.28078 -10.54523,-62.76458 -22.77884,-89.60945 l -6.07512,-13.33099 H 546.58 c -35.26096,0 -38.34286,0.25247 -37.2682,3.05298 3.52386,9.18302 12.10883,59.21984 14.0202,81.71565 l 2.21122,26.02505 h 44.16525 44.16525 z M 472.20312,173.79359 c 0,-3.40753 -16.14415,-34.6453 -24.64962,-47.69525 C 424.65356,90.962917 396.21772,68.769405 364.58794,61.345638 l -4.99479,-1.172319 v 57.247741 57.24772 h 56.30498 c 30.96774,0 56.30499,-0.39384 56.30499,-0.87519 z m 96.26335,-0.36166 c 0,-0.68028 -4.54217,-7.16708 -10.09374,-14.41511 -21.33444,-27.85402 -58.19163,-58.33556 -89.76015,-74.233203 -9.33916,-4.703128 -33.99687,-15.459641 -35.43894,-15.459641 -0.14366,0 3.57724,3.982212 8.26856,8.84936 19.86675,20.611405 40.81373,53.253404 52.79316,82.268374 l 5.87394,14.22707 h 34.1786 c 18.79821,0 34.17857,-0.55658 34.17857,-1.23685 z"
     id="path40"
     inkscape:connector-curvature="0" />
</svg>
